<svg width="13" height="13" viewBox="0 0 13 13" fill="none" xmlns="http://www.w3.org/2000/svg">
<path d="M9.97485 3.28564C9.83675 3.28564 9.72485 3.17371 9.72485 3.03564C9.72485 2.89757 9.83675 2.78564 9.97485 2.78564" stroke="#EBBD35" stroke-linecap="round" stroke-linejoin="round"/>
<path d="M9.97485 3.28564C10.113 3.28564 10.2249 3.17371 10.2249 3.03564C10.2249 2.89757 10.113 2.78564 9.97485 2.78564" stroke="#EBBD35" stroke-linecap="round" stroke-linejoin="round"/>
<path d="M0.5 3.07301C0.5 1.65198 1.65197 0.5 3.07301 0.5H9.93442C11.3554 0.5 12.5074 1.65198 12.5074 3.07301V9.9344C12.5074 11.3554 11.3554 12.5074 9.93442 12.5074H3.07301C1.65197 12.5074 0.5 11.3554 0.5 9.9344V3.07301Z" stroke="#EBBD35" stroke-linecap="round" stroke-linejoin="round"/>
<path d="M3.95361 6.50361C3.95361 6.83848 4.01957 7.17008 4.14772 7.47946C4.27587 7.78884 4.4637 8.06995 4.70049 8.30674C4.93728 8.54352 5.21839 8.73136 5.52777 8.85951C5.83715 8.98766 6.16874 9.05361 6.50361 9.05361C6.83848 9.05361 7.17008 8.98766 7.47946 8.85951C7.78884 8.73136 8.06995 8.54352 8.30674 8.30674C8.54352 8.06995 8.73136 7.78884 8.85951 7.47946C8.98766 7.17008 9.05361 6.83848 9.05361 6.50361C9.05361 5.82731 8.78495 5.17871 8.30674 4.70049C7.82852 4.22227 7.17992 3.95361 6.50361 3.95361C5.82731 3.95361 5.17871 4.22227 4.70049 4.70049C4.22227 5.17871 3.95361 5.82731 3.95361 6.50361Z" stroke="#EBBD35" stroke-linecap="round" stroke-linejoin="round"/>
</svg>
