<svg width="212" height="31" viewBox="0 0 212 31" fill="none" xmlns="http://www.w3.org/2000/svg">
<path d="M7.80197 30.9377C2.60105 30.9377 0 29.5118 0 26.6589C0 25.3155 0.681589 24.2073 2.04594 23.3355C2.30007 23.1946 2.68185 23.0059 3.19012 22.7695C2.19584 22.2273 1.69929 21.3317 1.69929 20.0826C1.69929 18.6448 2.4043 17.4542 3.81432 16.512C2.21926 15.3811 1.42173 13.8597 1.42173 11.9514C1.42173 9.94877 2.14431 8.43932 3.58947 7.42546C5.03345 6.4128 6.76202 5.90527 8.77282 5.90527C9.55864 5.90527 10.3796 5.99961 11.2345 6.18829H17.6147V9.30033H16.5397C16.4015 9.30033 16.2387 9.36004 16.0536 9.47706C15.8686 9.61798 15.7761 9.77203 15.7761 9.93682C16.0068 10.5733 16.1227 11.2456 16.1227 11.9526C16.1227 13.9099 15.3943 15.3703 13.9386 16.3364C12.4817 17.3037 10.7602 17.7862 8.77165 17.7862C7.59234 17.7862 6.48329 17.6214 5.44334 17.2906C5.35082 17.8089 5.30515 18.2101 5.30515 18.4931C5.30515 19.2478 5.81342 19.624 6.83111 19.624H11.8938C13.7196 19.624 15.1296 19.9596 16.1239 20.6319C17.117 21.3042 17.6147 22.5115 17.6147 24.2562C17.6147 28.7117 14.3438 30.9389 7.80197 30.9389V30.9377ZM8.00926 27.8973C11.3376 27.8973 13.0029 27.084 13.0029 25.4576C13.0029 24.9154 12.8296 24.5034 12.4829 24.2204C12.0894 23.9613 11.4535 23.8311 10.5763 23.8311H4.40456C4.26637 24.138 4.19611 24.6802 4.19611 25.4576C4.19611 25.9759 4.30502 26.4117 4.52519 26.7664C4.74419 27.1199 5.06273 27.373 5.47848 27.5271C5.89422 27.6799 6.29357 27.7803 6.67418 27.828C7.05597 27.8746 7.49982 27.8985 8.00926 27.8985V27.8973ZM8.77282 15.1327C9.72025 15.1327 10.4311 14.8437 10.9054 14.2669C11.3786 13.6901 11.6163 12.9175 11.6163 11.9514C11.6163 9.83054 10.6677 8.76892 8.77282 8.76892C7.82422 8.76892 7.11335 9.05791 6.64022 9.6347C6.16592 10.2127 5.92936 10.9841 5.92936 11.9502C5.92936 12.9163 6.17178 13.6889 6.65779 14.2657C7.1438 14.8437 7.84764 15.1315 8.77282 15.1315V15.1327Z" fill="#375633"/>
<path d="M27.1851 24.9978C24.3873 24.9978 22.0931 24.1261 20.3025 22.3814C18.5106 20.6379 17.6147 18.363 17.6147 15.5578C17.6147 12.7527 18.5165 10.3846 20.3189 8.59218C22.1224 6.80091 24.4107 5.90527 27.1839 5.90527C29.9571 5.90527 32.3333 6.80688 34.1017 8.61009C35.8701 10.4133 36.7543 12.7288 36.7543 15.5578C36.7543 18.3868 35.8525 20.6964 34.0502 22.4172C32.2467 24.138 29.9583 24.9978 27.1851 24.9978ZM27.1851 21.7449C28.7333 21.7449 29.8599 21.1442 30.5661 19.9417C31.2711 18.7391 31.6236 17.2894 31.6236 15.5925C31.6236 13.8955 31.277 12.3921 30.5837 11.1549C29.8904 9.91772 28.7567 9.29913 27.1851 9.29913C25.6135 9.29913 24.5091 9.92369 23.8041 11.1728C23.0991 12.4219 22.7466 13.8955 22.7466 15.5925C22.7466 16.6529 22.8731 17.6202 23.1284 18.4919C23.3825 19.3637 23.8568 20.1244 24.5501 20.7728C25.2434 21.4212 26.1217 21.7449 27.1851 21.7449Z" fill="#375633"/>
<path d="M37.3445 24.7506V21.8165H38.6971C38.9278 21.8165 39.1246 21.7102 39.2862 21.4988C39.4712 21.3101 39.5637 21.1215 39.5637 20.9328V3.99573C39.5637 3.83093 39.4712 3.61956 39.2862 3.35923C39.1246 3.14666 38.9278 3.04038 38.6971 3.04038H37.2402V0H43.7587C44.336 0 44.6253 0.401244 44.6253 1.20254V20.9316C44.6253 21.168 44.7295 21.3675 44.938 21.5323C45.123 21.7209 45.308 21.8153 45.4931 21.8153H46.9148V24.7494H37.3445V24.7506Z" fill="#375633"/>
<path d="M55.1665 25.0324C52.6228 25.0324 50.728 24.1427 49.4795 22.3634C48.2311 20.5841 47.6069 18.3629 47.6069 15.6987C47.6069 13.0345 48.2944 10.7369 49.6704 8.80349C51.0453 6.87131 52.9695 5.90402 55.444 5.90402C57.6633 5.90402 59.3965 6.70532 60.645 8.30791V3.04038H58.2875V0H64.8411C65.4184 0 65.7077 0.401244 65.7077 1.20254V20.8611C65.7077 21.0259 65.8002 21.2265 65.9852 21.4618C66.1469 21.6982 66.3436 21.8153 66.5743 21.8153H67.8227V24.7494H61.6509C61.1193 24.7494 60.8066 24.0544 60.7152 22.6631C59.3286 24.243 57.4783 25.0324 55.1677 25.0324H55.1665ZM56.8658 21.9216C58.2758 21.9216 59.5359 21.426 60.645 20.436V10.2532C59.5125 9.71107 58.3906 9.43999 57.2815 9.43999C55.6396 9.43999 54.4732 10.0239 53.7799 11.1907C53.0866 12.3574 52.7399 13.8131 52.7399 15.5578C52.7399 19.8007 54.1148 21.9216 56.8658 21.9216Z" fill="#375633"/>
<path d="M85.5418 16.4415H73.3715C73.58 20.0252 75.1516 21.8153 78.0876 21.8153C79.0351 21.8153 79.7986 21.6684 80.376 21.3735C80.9533 21.0785 81.5202 20.5542 82.0753 19.7995H84.9527V23.1934C83.0567 24.3959 80.6301 24.9966 77.6707 24.9966C74.7113 24.9966 72.3082 24.1893 70.6663 22.5748C69.0244 20.9603 68.2046 18.6209 68.2046 15.5566C68.2046 12.4923 69.0314 10.2951 70.6838 8.53841C72.3363 6.78297 74.5497 5.90405 77.3241 5.90405C80.0984 5.90405 82.3177 6.67669 83.6352 8.21957C84.9527 9.76364 85.612 12.0326 85.612 15.0264C85.612 15.4503 85.6003 15.7453 85.5769 15.9101C85.5535 16.0749 85.5418 16.2516 85.5418 16.4403V16.4415ZM77.3241 8.98026C75.0814 8.98026 73.7873 10.4885 73.4406 13.5062H80.5493C80.5025 12.847 80.4334 12.2869 80.3409 11.8272C80.2483 11.3674 80.0984 10.9029 79.89 10.43C79.6815 9.95829 79.3641 9.59884 78.9367 9.35165C78.5081 9.10445 77.9717 8.98026 77.3241 8.98026Z" fill="#375633"/>
<path d="M86.3393 24.7506V21.8165H87.5526C87.7833 21.8165 87.98 21.7102 88.1417 21.4988C88.3267 21.3102 88.4192 21.1215 88.4192 20.9328V10.2544C88.4192 10.0897 88.3267 9.87828 88.1417 9.61795C87.9566 9.40539 87.7599 9.29911 87.5526 9.29911H86.2V6.18707H92.4069C92.7301 6.18707 92.9725 6.34112 93.1353 6.64683C93.2969 6.95374 93.4011 7.60098 93.448 8.59096C95.3428 6.79969 97.5972 5.90405 100.21 5.90405C103.353 5.90405 104.926 7.44813 104.926 10.5363V20.9316C104.926 21.1442 105.019 21.3448 105.204 21.5323C105.389 21.721 105.585 21.8153 105.793 21.8153H106.764V24.7494H97.7835V21.8153H99.8633V12.3037C99.8633 11.408 99.6842 10.7894 99.3258 10.4479C98.9674 10.1064 98.3491 9.9356 97.4708 9.9356C96.4074 9.9356 95.0782 10.1721 93.4831 10.6426V21.8153H95.5981V24.7494H86.3405L86.3393 24.7506Z" fill="#375633"/>
<path d="M117.718 30.4779V27.7205H118.931C119.14 27.7205 119.336 27.6262 119.521 27.4375C119.706 27.2488 119.798 27.0482 119.798 26.8368V10.2532C119.798 10.0884 119.706 9.87706 119.521 9.61673C119.336 9.40417 119.139 9.29788 118.931 9.29788H117.579V6.18585H123.786C124.063 6.18585 124.294 6.32677 124.479 6.60979C124.664 6.89281 124.768 7.47079 124.792 8.34254C126.387 6.71607 128.236 5.90283 130.339 5.90283C131.564 5.90283 132.634 6.16794 133.547 6.69816C134.46 7.22837 135.177 7.94727 135.697 8.85484C136.217 9.76242 136.599 10.7345 136.841 11.7722C137.084 12.81 137.206 13.9062 137.206 15.061C137.206 18.1957 136.385 20.6008 134.744 22.2738C133.357 23.6877 131.565 24.3947 129.37 24.3947C127.497 24.3947 125.994 23.9708 124.862 23.1217V27.7181H127.186V30.4755H117.719L117.718 30.4779ZM127.878 9.61673C127.484 9.61673 126.999 9.67525 126.421 9.79347C126.074 9.88781 125.554 10.0526 124.861 10.2891V20.6486C125.716 21.1907 126.698 21.4618 127.809 21.4618C128.364 21.4618 128.884 21.3794 129.368 21.2146C130.362 20.9555 131.062 20.2664 131.466 19.1463C131.87 18.0273 132.073 16.8188 132.073 15.5219C132.073 11.5859 130.673 9.61673 127.876 9.61673H127.878Z" fill="#375633"/>
<path d="M155.478 16.4415H143.308C143.517 20.0252 145.088 21.8153 148.024 21.8153C148.972 21.8153 149.735 21.6684 150.313 21.3735C150.89 21.0785 151.457 20.5542 152.012 19.7995H154.889V23.1934C152.993 24.3959 150.567 24.9966 147.607 24.9966C144.648 24.9966 142.245 24.1893 140.603 22.5748C138.961 20.9603 138.141 18.6209 138.141 15.5566C138.141 12.4923 138.968 10.2951 140.62 8.53841C142.273 6.78297 144.486 5.90405 147.261 5.90405C150.035 5.90405 152.254 6.67669 153.572 8.21957C154.889 9.76364 155.549 12.0326 155.549 15.0264C155.549 15.4503 155.537 15.7453 155.513 15.9101C155.49 16.0749 155.478 16.2516 155.478 16.4403V16.4415ZM147.261 8.98026C145.018 8.98026 143.724 10.4885 143.377 13.5062H150.486C150.439 12.847 150.37 12.2869 150.277 11.8272C150.185 11.3674 150.035 10.9029 149.827 10.43C149.618 9.95829 149.301 9.59884 148.873 9.35165C148.445 9.10445 147.908 8.98026 147.261 8.98026Z" fill="#375633"/>
<path d="M162.101 24.9619C159.373 24.9619 157.582 23.9015 156.727 21.7794C156.426 21.1429 156.276 20.3416 156.276 19.3755C156.276 17.3956 156.963 15.9578 158.339 15.0621C159.714 14.1665 161.419 13.7187 163.454 13.7187C164.679 13.7187 165.915 13.8596 167.164 14.1426V12.1985C167.164 10.3595 166.112 9.44114 164.009 9.44114C163.13 9.44114 162.384 9.56534 161.772 9.81253C161.159 10.0597 160.506 10.4908 159.813 11.1034H157.489V7.32028C159.569 6.37807 162.078 5.90637 165.014 5.90637C166.1 5.90637 167.054 5.98877 167.875 6.15357C168.694 6.31836 169.446 6.60736 170.129 7.01935C170.811 7.43253 171.331 8.03321 171.689 8.82256C172.047 9.61311 172.226 10.5732 172.226 11.7041V20.9327C172.226 21.1453 172.319 21.3459 172.504 21.5334C172.689 21.7221 172.886 21.8164 173.093 21.8164H174.064V24.292C173.717 24.5045 173.289 24.6813 172.78 24.8222C172.202 24.9404 171.613 24.9989 171.012 24.9989C169.093 24.9989 167.879 24.2215 167.371 22.6655C166.168 24.1976 164.412 24.9643 162.101 24.9643V24.9619ZM163.974 21.9215C165.06 21.9215 166.124 21.4856 167.164 20.6127V16.6528C166.378 16.5119 165.488 16.4402 164.494 16.4402C162.298 16.4402 161.199 17.3478 161.199 19.163C161.199 20.9781 162.123 21.9203 163.974 21.9203V21.9215Z" fill="#375633"/>
<path d="M184.085 24.9978C181.057 24.9978 178.728 24.1905 177.098 22.576C175.468 20.9615 174.654 18.6101 174.654 15.522C174.654 12.4338 175.538 10.1482 177.307 8.45004C179.075 6.75311 181.416 5.90405 184.329 5.90405C186.895 5.90405 188.94 6.2217 190.466 6.8582V11.1011H187.416C187.069 10.3942 186.653 9.89858 186.167 9.61556C185.682 9.33254 185.035 9.19163 184.226 9.19163C181.29 9.19163 179.822 11.3125 179.822 15.5554C179.822 16.451 179.88 17.2297 179.996 17.8888C180.111 18.5492 180.313 19.1977 180.602 19.833C180.891 20.4695 181.335 20.9531 181.937 21.2827C182.538 21.6135 183.29 21.7783 184.192 21.7783C185.555 21.7783 186.653 21.3544 187.486 20.5053C187.856 20.0575 188.052 19.8222 188.075 19.7983H190.537V23.4406C188.803 24.4783 186.653 24.9966 184.087 24.9966L184.085 24.9978Z" fill="#375633"/>
<path d="M203.017 24.7506V21.8165H205.097V12.3048C205.097 11.4092 204.918 10.7906 204.56 10.4491C204.201 10.1075 203.583 9.93677 202.705 9.93677C201.641 9.93677 200.312 10.1732 198.717 10.6437V21.8165H200.832V24.7506H191.574V21.8165H192.788C193.018 21.8165 193.215 21.7102 193.377 21.4988C193.562 21.3101 193.654 21.1215 193.654 20.9328V3.99573C193.654 3.83093 193.562 3.61956 193.377 3.35923C193.215 3.14666 193.018 3.04038 192.788 3.04038H191.47V0H197.85C198.428 0 198.717 0.401244 198.717 1.20254V8.5563C200.521 6.78891 202.762 5.90402 205.444 5.90402C208.587 5.90402 210.16 7.4481 210.16 10.5362V20.9316C210.16 21.1441 210.253 21.3448 210.438 21.5323C210.623 21.7209 210.819 21.8153 211.027 21.8153H211.998V24.7494H203.017V24.7506Z" fill="#375633"/>
</svg>
