<svg width="12" height="13" viewBox="0 0 12 13" fill="none" xmlns="http://www.w3.org/2000/svg">
<path d="M11.1469 5.2244C10.0512 5.22702 8.98233 4.8853 8.09134 4.24752V8.69563C8.09019 11.81 4.71809 13.7552 2.02155 12.1971C-0.674991 10.6389 -0.673564 6.74594 2.02412 5.18975C2.80334 4.74026 3.71013 4.56328 4.60118 4.6868V6.92405C3.23739 6.49507 1.92063 7.70332 2.23103 9.09889C2.54142 10.4945 4.24616 11.0307 5.29956 10.0641C5.68291 9.71233 5.90113 9.21591 5.90112 8.69563V0H8.09134C8.08981 0.184957 8.10531 0.369664 8.13763 0.551783C8.29144 1.37344 8.77672 2.09554 9.47938 2.54836C9.97402 2.87542 10.5539 3.04974 11.1469 3.04962V5.2244Z" fill="#EBBD35"/>
</svg>
